<mxfile host="Electron" agent="Mozilla/5.0 (Windows NT 10.0; Win64; x64) AppleWebKit/537.36 (KHTML, like Gecko) draw.io/26.0.16 Chrome/132.0.6834.196 Electron/34.2.0 Safari/537.36" version="26.0.16">
  <diagram name="Page-1" id="W0ufF1aa6dRPiHGxZgUF">
    <mxGraphModel dx="1209" dy="752" grid="1" gridSize="10" guides="1" tooltips="1" connect="1" arrows="1" fold="1" page="1" pageScale="1" pageWidth="850" pageHeight="1100" math="0" shadow="0">
      <root>
        <mxCell id="0" />
        <mxCell id="1" parent="0" />
        <mxCell id="KQzsQCtYIXzzXKB5vo0p-1" value="Auto" style="swimlane;fontStyle=1;align=center;verticalAlign=top;childLayout=stackLayout;horizontal=1;startSize=26;horizontalStack=0;resizeParent=1;resizeParentMax=0;resizeLast=0;collapsible=1;marginBottom=0;whiteSpace=wrap;html=1;fillColor=#6a00ff;fontColor=#ffffff;strokeColor=#3700CC;" parent="1" vertex="1">
          <mxGeometry x="200" y="334" width="160" height="216" as="geometry" />
        </mxCell>
        <mxCell id="KQzsQCtYIXzzXKB5vo0p-9" value="- Step[]: stepsBuffer" style="text;strokeColor=none;fillColor=none;align=left;verticalAlign=top;spacingLeft=4;spacingRight=4;overflow=hidden;rotatable=0;points=[[0,0.5],[1,0.5]];portConstraint=eastwest;whiteSpace=wrap;html=1;" parent="KQzsQCtYIXzzXKB5vo0p-1" vertex="1">
          <mxGeometry y="26" width="160" height="26" as="geometry" />
        </mxCell>
        <mxCell id="KQzsQCtYIXzzXKB5vo0p-10" value="- byte: callCount" style="text;strokeColor=none;fillColor=none;align=left;verticalAlign=top;spacingLeft=4;spacingRight=4;overflow=hidden;rotatable=0;points=[[0,0.5],[1,0.5]];portConstraint=eastwest;whiteSpace=wrap;html=1;" parent="KQzsQCtYIXzzXKB5vo0p-1" vertex="1">
          <mxGeometry y="52" width="160" height="26" as="geometry" />
        </mxCell>
        <mxCell id="KQzsQCtYIXzzXKB5vo0p-3" value="" style="line;strokeWidth=1;fillColor=none;align=left;verticalAlign=middle;spacingTop=-1;spacingLeft=3;spacingRight=3;rotatable=0;labelPosition=right;points=[];portConstraint=eastwest;strokeColor=inherit;" parent="KQzsQCtYIXzzXKB5vo0p-1" vertex="1">
          <mxGeometry y="78" width="160" height="8" as="geometry" />
        </mxCell>
        <mxCell id="KQzsQCtYIXzzXKB5vo0p-4" value="+ setup()" style="text;strokeColor=none;fillColor=none;align=left;verticalAlign=top;spacingLeft=4;spacingRight=4;overflow=hidden;rotatable=0;points=[[0,0.5],[1,0.5]];portConstraint=eastwest;whiteSpace=wrap;html=1;" parent="KQzsQCtYIXzzXKB5vo0p-1" vertex="1">
          <mxGeometry y="86" width="160" height="26" as="geometry" />
        </mxCell>
        <mxCell id="KQzsQCtYIXzzXKB5vo0p-5" value="+ fetchData(RemoteData&amp;amp;)" style="text;strokeColor=none;fillColor=none;align=left;verticalAlign=top;spacingLeft=4;spacingRight=4;overflow=hidden;rotatable=0;points=[[0,0.5],[1,0.5]];portConstraint=eastwest;whiteSpace=wrap;html=1;" parent="KQzsQCtYIXzzXKB5vo0p-1" vertex="1">
          <mxGeometry y="112" width="160" height="26" as="geometry" />
        </mxCell>
        <mxCell id="KQzsQCtYIXzzXKB5vo0p-6" value="- execGameStart()" style="text;strokeColor=none;fillColor=none;align=left;verticalAlign=top;spacingLeft=4;spacingRight=4;overflow=hidden;rotatable=0;points=[[0,0.5],[1,0.5]];portConstraint=eastwest;whiteSpace=wrap;html=1;" parent="KQzsQCtYIXzzXKB5vo0p-1" vertex="1">
          <mxGeometry y="138" width="160" height="26" as="geometry" />
        </mxCell>
        <mxCell id="KQzsQCtYIXzzXKB5vo0p-7" value="- exec2Stages" style="text;strokeColor=none;fillColor=none;align=left;verticalAlign=top;spacingLeft=4;spacingRight=4;overflow=hidden;rotatable=0;points=[[0,0.5],[1,0.5]];portConstraint=eastwest;whiteSpace=wrap;html=1;" parent="KQzsQCtYIXzzXKB5vo0p-1" vertex="1">
          <mxGeometry y="164" width="160" height="26" as="geometry" />
        </mxCell>
        <mxCell id="KQzsQCtYIXzzXKB5vo0p-8" value="- exec3Stages" style="text;strokeColor=none;fillColor=none;align=left;verticalAlign=top;spacingLeft=4;spacingRight=4;overflow=hidden;rotatable=0;points=[[0,0.5],[1,0.5]];portConstraint=eastwest;whiteSpace=wrap;html=1;" parent="KQzsQCtYIXzzXKB5vo0p-1" vertex="1">
          <mxGeometry y="190" width="160" height="26" as="geometry" />
        </mxCell>
        <mxCell id="KQzsQCtYIXzzXKB5vo0p-11" value="&lt;p style=&quot;margin:0px;margin-top:6px;text-align:center;&quot;&gt;&lt;b&gt;Steps&lt;/b&gt;&lt;/p&gt;&lt;hr size=&quot;1&quot; style=&quot;border-style:solid;&quot;&gt;&lt;p style=&quot;margin:0px;margin-left:8px;&quot;&gt;+ function: callback(bool&amp;amp; is Finished)&lt;/p&gt;&lt;p style=&quot;margin:0px;margin-left:8px;&quot;&gt;+ bool: isFinished&lt;/p&gt;&lt;p style=&quot;margin:0px;margin-left:8px;&quot;&gt;+ bool: wasCalled&lt;/p&gt;" style="align=left;overflow=fill;html=1;dropTarget=0;whiteSpace=wrap;fillColor=#008a00;fontColor=#ffffff;strokeColor=#005700;" parent="1" vertex="1">
          <mxGeometry x="630" y="328" width="280" height="90" as="geometry" />
        </mxCell>
        <mxCell id="KQzsQCtYIXzzXKB5vo0p-12" value="" style="shape=component;jettyWidth=8;jettyHeight=4;" parent="KQzsQCtYIXzzXKB5vo0p-11" vertex="1">
          <mxGeometry x="1" width="20" height="20" relative="1" as="geometry">
            <mxPoint x="-24" y="4" as="offset" />
          </mxGeometry>
        </mxCell>
        <mxCell id="KQzsQCtYIXzzXKB5vo0p-13" style="edgeStyle=orthogonalEdgeStyle;rounded=0;orthogonalLoop=1;jettySize=auto;html=1;startArrow=oval;startFill=1;endArrow=box;endFill=0;" parent="1" source="KQzsQCtYIXzzXKB5vo0p-9" target="KQzsQCtYIXzzXKB5vo0p-11" edge="1">
          <mxGeometry relative="1" as="geometry" />
        </mxCell>
        <mxCell id="KQzsQCtYIXzzXKB5vo0p-17" value="" style="edgeStyle=orthogonalEdgeStyle;rounded=0;orthogonalLoop=1;jettySize=auto;html=1;" parent="1" source="KQzsQCtYIXzzXKB5vo0p-15" target="KQzsQCtYIXzzXKB5vo0p-16" edge="1">
          <mxGeometry relative="1" as="geometry" />
        </mxCell>
        <mxCell id="KQzsQCtYIXzzXKB5vo0p-15" value="&lt;span style=&quot;color: rgb(255, 255, 255); text-align: left;&quot;&gt;fetchData(RemoteData&amp;amp;)&lt;/span&gt;" style="strokeWidth=2;html=1;shape=mxgraph.flowchart.start_1;whiteSpace=wrap;fillColor=#60a917;fontColor=#ffffff;strokeColor=#2D7600;" parent="1" vertex="1">
          <mxGeometry x="410" y="670" width="160" height="60" as="geometry" />
        </mxCell>
        <mxCell id="KQzsQCtYIXzzXKB5vo0p-24" value="" style="edgeStyle=orthogonalEdgeStyle;rounded=0;orthogonalLoop=1;jettySize=auto;html=1;" parent="1" source="KQzsQCtYIXzzXKB5vo0p-16" edge="1">
          <mxGeometry relative="1" as="geometry">
            <mxPoint x="490" y="970" as="targetPoint" />
          </mxGeometry>
        </mxCell>
        <mxCell id="KQzsQCtYIXzzXKB5vo0p-28" style="edgeStyle=orthogonalEdgeStyle;rounded=0;orthogonalLoop=1;jettySize=auto;html=1;" parent="1" source="KQzsQCtYIXzzXKB5vo0p-16" target="KQzsQCtYIXzzXKB5vo0p-26" edge="1">
          <mxGeometry relative="1" as="geometry" />
        </mxCell>
        <mxCell id="KQzsQCtYIXzzXKB5vo0p-35" style="edgeStyle=orthogonalEdgeStyle;rounded=0;orthogonalLoop=1;jettySize=auto;html=1;entryX=0.5;entryY=0;entryDx=0;entryDy=0;" parent="1" source="KQzsQCtYIXzzXKB5vo0p-16" target="KQzsQCtYIXzzXKB5vo0p-32" edge="1">
          <mxGeometry relative="1" as="geometry">
            <Array as="points">
              <mxPoint x="670" y="840" />
              <mxPoint x="670" y="1060" />
              <mxPoint x="490" y="1060" />
            </Array>
          </mxGeometry>
        </mxCell>
        <mxCell id="KQzsQCtYIXzzXKB5vo0p-16" value="runmode changed ?" style="rhombus;whiteSpace=wrap;html=1;fillColor=#e3c800;strokeColor=#B09500;fontColor=#000000;strokeWidth=2;" parent="1" vertex="1">
          <mxGeometry x="430" y="800" width="120" height="80" as="geometry" />
        </mxCell>
        <mxCell id="KQzsQCtYIXzzXKB5vo0p-18" value="End" style="strokeWidth=2;html=1;shape=mxgraph.flowchart.terminator;whiteSpace=wrap;fillColor=#e51400;fontColor=#ffffff;strokeColor=#B20000;" parent="1" vertex="1">
          <mxGeometry x="440" y="1640" width="100" height="60" as="geometry" />
        </mxCell>
        <mxCell id="KQzsQCtYIXzzXKB5vo0p-20" value="No" style="text;html=1;align=center;verticalAlign=middle;resizable=0;points=[];autosize=1;strokeColor=none;fillColor=none;" parent="1" vertex="1">
          <mxGeometry x="550" y="808" width="40" height="30" as="geometry" />
        </mxCell>
        <mxCell id="KQzsQCtYIXzzXKB5vo0p-25" value="Yes" style="text;html=1;align=center;verticalAlign=middle;resizable=0;points=[];autosize=1;strokeColor=none;fillColor=none;" parent="1" vertex="1">
          <mxGeometry x="500" y="880" width="40" height="30" as="geometry" />
        </mxCell>
        <mxCell id="KQzsQCtYIXzzXKB5vo0p-26" value="GlobalState" style="shape=parallelogram;html=1;strokeWidth=2;perimeter=parallelogramPerimeter;whiteSpace=wrap;rounded=1;arcSize=12;size=0.23;fillColor=#d80073;fontColor=#ffffff;strokeColor=#A50040;" parent="1" vertex="1">
          <mxGeometry x="290" y="810" width="100" height="60" as="geometry" />
        </mxCell>
        <mxCell id="KQzsQCtYIXzzXKB5vo0p-36" style="edgeStyle=orthogonalEdgeStyle;rounded=0;orthogonalLoop=1;jettySize=auto;html=1;" parent="1" source="KQzsQCtYIXzzXKB5vo0p-30" target="KQzsQCtYIXzzXKB5vo0p-32" edge="1">
          <mxGeometry relative="1" as="geometry" />
        </mxCell>
        <mxCell id="KQzsQCtYIXzzXKB5vo0p-30" value="&lt;b&gt;Start action :&lt;/b&gt;&lt;div&gt;Reset and fill buffer&lt;/div&gt;" style="whiteSpace=wrap;html=1;fillColor=#0050ef;strokeColor=#001DBC;fontColor=#ffffff;strokeWidth=2;" parent="1" vertex="1">
          <mxGeometry x="430" y="940" width="120" height="60" as="geometry" />
        </mxCell>
        <mxCell id="KQzsQCtYIXzzXKB5vo0p-37" style="edgeStyle=orthogonalEdgeStyle;rounded=0;orthogonalLoop=1;jettySize=auto;html=1;" parent="1" source="KQzsQCtYIXzzXKB5vo0p-32" target="KQzsQCtYIXzzXKB5vo0p-18" edge="1">
          <mxGeometry relative="1" as="geometry">
            <Array as="points">
              <mxPoint x="800" y="1130" />
              <mxPoint x="800" y="1670" />
            </Array>
          </mxGeometry>
        </mxCell>
        <mxCell id="KQzsQCtYIXzzXKB5vo0p-41" style="edgeStyle=orthogonalEdgeStyle;rounded=0;orthogonalLoop=1;jettySize=auto;html=1;" parent="1" source="KQzsQCtYIXzzXKB5vo0p-32" target="KQzsQCtYIXzzXKB5vo0p-43" edge="1">
          <mxGeometry relative="1" as="geometry">
            <mxPoint x="490" y="1230" as="targetPoint" />
          </mxGeometry>
        </mxCell>
        <mxCell id="KQzsQCtYIXzzXKB5vo0p-32" value="auto running ?" style="rhombus;whiteSpace=wrap;html=1;fillColor=#e3c800;strokeColor=#B09500;fontColor=#000000;strokeWidth=2;" parent="1" vertex="1">
          <mxGeometry x="430" y="1090" width="120" height="80" as="geometry" />
        </mxCell>
        <mxCell id="KQzsQCtYIXzzXKB5vo0p-38" value="No" style="text;html=1;align=center;verticalAlign=middle;resizable=0;points=[];autosize=1;strokeColor=none;fillColor=none;" parent="1" vertex="1">
          <mxGeometry x="550" y="1100" width="40" height="30" as="geometry" />
        </mxCell>
        <mxCell id="KQzsQCtYIXzzXKB5vo0p-42" value="Yes" style="text;html=1;align=center;verticalAlign=middle;resizable=0;points=[];autosize=1;strokeColor=none;fillColor=none;" parent="1" vertex="1">
          <mxGeometry x="490" y="1168" width="40" height="30" as="geometry" />
        </mxCell>
        <mxCell id="KQzsQCtYIXzzXKB5vo0p-46" style="edgeStyle=orthogonalEdgeStyle;rounded=0;orthogonalLoop=1;jettySize=auto;html=1;" parent="1" source="KQzsQCtYIXzzXKB5vo0p-43" target="KQzsQCtYIXzzXKB5vo0p-45" edge="1">
          <mxGeometry relative="1" as="geometry" />
        </mxCell>
        <mxCell id="KQzsQCtYIXzzXKB5vo0p-49" value="" style="edgeStyle=orthogonalEdgeStyle;rounded=0;orthogonalLoop=1;jettySize=auto;html=1;" parent="1" source="KQzsQCtYIXzzXKB5vo0p-43" target="KQzsQCtYIXzzXKB5vo0p-48" edge="1">
          <mxGeometry relative="1" as="geometry" />
        </mxCell>
        <mxCell id="KQzsQCtYIXzzXKB5vo0p-43" value="Step called ?" style="rhombus;whiteSpace=wrap;html=1;fillColor=#e3c800;strokeColor=#B09500;fontColor=#000000;strokeWidth=2;" parent="1" vertex="1">
          <mxGeometry x="430" y="1230" width="120" height="80" as="geometry" />
        </mxCell>
        <mxCell id="KQzsQCtYIXzzXKB5vo0p-54" style="edgeStyle=orthogonalEdgeStyle;rounded=0;orthogonalLoop=1;jettySize=auto;html=1;" parent="1" source="KQzsQCtYIXzzXKB5vo0p-45" target="KQzsQCtYIXzzXKB5vo0p-53" edge="1">
          <mxGeometry relative="1" as="geometry" />
        </mxCell>
        <mxCell id="KQzsQCtYIXzzXKB5vo0p-56" style="edgeStyle=orthogonalEdgeStyle;rounded=0;orthogonalLoop=1;jettySize=auto;html=1;" parent="1" source="KQzsQCtYIXzzXKB5vo0p-45" target="KQzsQCtYIXzzXKB5vo0p-18" edge="1">
          <mxGeometry relative="1" as="geometry">
            <Array as="points">
              <mxPoint x="800" y="1420" />
              <mxPoint x="800" y="1670" />
            </Array>
          </mxGeometry>
        </mxCell>
        <mxCell id="KQzsQCtYIXzzXKB5vo0p-45" value="Step finished ?" style="rhombus;whiteSpace=wrap;html=1;fillColor=#e3c800;strokeColor=#B09500;fontColor=#000000;strokeWidth=2;" parent="1" vertex="1">
          <mxGeometry x="430" y="1380" width="120" height="80" as="geometry" />
        </mxCell>
        <mxCell id="KQzsQCtYIXzzXKB5vo0p-50" style="edgeStyle=orthogonalEdgeStyle;rounded=0;orthogonalLoop=1;jettySize=auto;html=1;" parent="1" source="KQzsQCtYIXzzXKB5vo0p-48" target="KQzsQCtYIXzzXKB5vo0p-45" edge="1">
          <mxGeometry relative="1" as="geometry">
            <Array as="points">
              <mxPoint x="690" y="1340" />
              <mxPoint x="490" y="1340" />
            </Array>
          </mxGeometry>
        </mxCell>
        <mxCell id="KQzsQCtYIXzzXKB5vo0p-48" value="&lt;b&gt;Call step&lt;/b&gt;" style="whiteSpace=wrap;html=1;fillColor=#0050ef;strokeColor=#001DBC;fontColor=#ffffff;strokeWidth=2;" parent="1" vertex="1">
          <mxGeometry x="630" y="1240" width="120" height="60" as="geometry" />
        </mxCell>
        <mxCell id="KQzsQCtYIXzzXKB5vo0p-51" value="No" style="text;html=1;align=center;verticalAlign=middle;resizable=0;points=[];autosize=1;strokeColor=none;fillColor=none;" parent="1" vertex="1">
          <mxGeometry x="550" y="1240" width="40" height="30" as="geometry" />
        </mxCell>
        <mxCell id="KQzsQCtYIXzzXKB5vo0p-52" value="Yes" style="text;html=1;align=center;verticalAlign=middle;resizable=0;points=[];autosize=1;strokeColor=none;fillColor=none;" parent="1" vertex="1">
          <mxGeometry x="490" y="1310" width="40" height="30" as="geometry" />
        </mxCell>
        <mxCell id="KQzsQCtYIXzzXKB5vo0p-58" style="edgeStyle=orthogonalEdgeStyle;rounded=0;orthogonalLoop=1;jettySize=auto;html=1;" parent="1" source="KQzsQCtYIXzzXKB5vo0p-53" target="KQzsQCtYIXzzXKB5vo0p-18" edge="1">
          <mxGeometry relative="1" as="geometry" />
        </mxCell>
        <mxCell id="KQzsQCtYIXzzXKB5vo0p-53" value="&lt;b&gt;Next action:&lt;/b&gt;&lt;br&gt;Update buffer" style="whiteSpace=wrap;html=1;fillColor=#0050ef;strokeColor=#001DBC;fontColor=#ffffff;strokeWidth=2;" parent="1" vertex="1">
          <mxGeometry x="430" y="1510" width="120" height="60" as="geometry" />
        </mxCell>
        <mxCell id="KQzsQCtYIXzzXKB5vo0p-55" value="Yes" style="text;html=1;align=center;verticalAlign=middle;resizable=0;points=[];autosize=1;strokeColor=none;fillColor=none;" parent="1" vertex="1">
          <mxGeometry x="490" y="1458" width="40" height="30" as="geometry" />
        </mxCell>
        <mxCell id="KQzsQCtYIXzzXKB5vo0p-57" value="No" style="text;html=1;align=center;verticalAlign=middle;resizable=0;points=[];autosize=1;strokeColor=none;fillColor=none;" parent="1" vertex="1">
          <mxGeometry x="550" y="1388" width="40" height="30" as="geometry" />
        </mxCell>
      </root>
    </mxGraphModel>
  </diagram>
</mxfile>
